<svg xmlns="http://www.w3.org/2000/svg" viewBox="0 0 64 96" shape-rendering="crispEdges">
  <rect width="64" height="96" fill="none"/>
  <g fill="#3a2118">
    <rect x="22" y="15" width="20" height="1"/><rect x="19" y="16" width="26" height="2"/><rect x="17" y="18" width="30" height="4"/><rect x="16" y="22" width="32" height="15"/><rect x="18" y="37" width="28" height="6"/><rect x="21" y="43" width="22" height="2"/>
    <rect x="25" y="44" width="14" height="8"/><rect x="13" y="50" width="6" height="20"/><rect x="45" y="50" width="6" height="20"/><rect x="12" y="69" width="8" height="7"/><rect x="44" y="69" width="8" height="7"/>
  </g>
  <g fill="#f3b27d">
    <rect x="22" y="16" width="20" height="2"/><rect x="19" y="18" width="26" height="4"/><rect x="18" y="22" width="28" height="15"/><rect x="20" y="37" width="24" height="5"/><rect x="24" y="43" width="16" height="2"/>
    <rect x="27" y="45" width="10" height="7"/><rect x="15" y="51" width="4" height="18"/><rect x="45" y="51" width="4" height="18"/><rect x="14" y="69" width="6" height="5"/><rect x="44" y="69" width="6" height="5"/>
  </g>
  <g fill="#ffcc9a">
    <rect x="24" y="18" width="9" height="2"/><rect x="22" y="22" width="5" height="10"/><rect x="29" y="39" width="6" height="2"/>
  </g>
  <g fill="#c77d55">
    <rect x="44" y="23" width="2" height="11"/><rect x="20" y="39" width="24" height="2"/><rect x="27" y="50" width="10" height="2"/>
  </g>
</svg>
