<svg xmlns="http://www.w3.org/2000/svg" viewBox="0 0 64 96" shape-rendering="crispEdges">
  <rect width="64" height="96" fill="none"/>
  <g fill="#3a2118">
    <rect x="21" y="15" width="22" height="1"/><rect x="18" y="16" width="28" height="2"/><rect x="16" y="18" width="32" height="5"/><rect x="16" y="23" width="32" height="15"/><rect x="18" y="38" width="28" height="5"/><rect x="22" y="43" width="20" height="2"/>
    <rect x="25" y="44" width="14" height="8"/><rect x="12" y="50" width="6" height="20"/><rect x="46" y="50" width="6" height="20"/><rect x="12" y="69" width="8" height="7"/><rect x="44" y="69" width="8" height="7"/>
  </g>
  <g fill="#f0a978">
    <rect x="22" y="16" width="20" height="2"/><rect x="19" y="18" width="26" height="5"/><rect x="18" y="23" width="28" height="15"/><rect x="20" y="38" width="24" height="4"/><rect x="25" y="43" width="14" height="2"/>
    <rect x="27" y="45" width="10" height="7"/><rect x="14" y="51" width="4" height="18"/><rect x="46" y="51" width="4" height="18"/><rect x="14" y="69" width="6" height="5"/><rect x="44" y="69" width="6" height="5"/>
  </g>
  <g fill="#ffd2ad">
    <rect x="24" y="18" width="8" height="2"/><rect x="21" y="23" width="5" height="10"/><rect x="29" y="39" width="6" height="2"/>
  </g>
  <g fill="#bd734f">
    <rect x="44" y="24" width="2" height="11"/><rect x="20" y="39" width="24" height="2"/>
  </g>
</svg>
