<svg xmlns="http://www.w3.org/2000/svg" viewBox="0 0 160 220" shape-rendering="crispEdges">
  <rect width="160" height="220" fill="none"/>
  <g fill="#f3b27d">
    <rect x="64" y="28" width="32" height="8"/><rect x="56" y="36" width="48" height="8"/><rect x="52" y="44" width="56" height="32"/><rect x="56" y="76" width="48" height="12"/><rect x="64" y="88" width="32" height="8"/>
    <rect x="68" y="92" width="24" height="16"/>
    <rect x="36" y="108" width="16" height="48"/><rect x="108" y="108" width="16" height="48"/><rect x="40" y="156" width="16" height="16"/><rect x="104" y="156" width="16" height="16"/>
  </g>
  <g fill="#4a2a1d">
    <rect x="52" y="40" width="4" height="40"/><rect x="104" y="40" width="4" height="40"/><rect x="60" y="88" width="40" height="4"/><rect x="32" y="108" width="4" height="48"/><rect x="124" y="108" width="4" height="48"/>
  </g>
</svg>
