<svg xmlns="http://www.w3.org/2000/svg" viewBox="0 0 64 96" shape-rendering="crispEdges">
  <rect width="64" height="96" fill="none"/>
  <g fill="#290812">
    <rect x="20" y="8" width="25" height="2"/><rect x="17" y="10" width="31" height="4"/><rect x="14" y="14" width="37" height="8"/><rect x="13" y="22" width="40" height="11"/><rect x="14" y="33" width="8" height="15"/><rect x="45" y="31" width="8" height="17"/>
    <rect x="22" y="31" width="5" height="12"/><rect x="30" y="29" width="4" height="16"/><rect x="39" y="31" width="5" height="12"/>
  </g>
  <g fill="#9d1f45">
    <rect x="21" y="9" width="22" height="2"/><rect x="18" y="11" width="28" height="4"/><rect x="16" y="15" width="33" height="8"/><rect x="15" y="23" width="36" height="9"/><rect x="16" y="32" width="6" height="13"/><rect x="45" y="31" width="6" height="14"/>
    <rect x="23" y="30" width="5" height="11"/><rect x="31" y="28" width="4" height="15"/><rect x="39" y="30" width="5" height="11"/>
  </g>
  <g fill="#e24b70">
    <rect x="23" y="11" width="7" height="2"/><rect x="34" y="10" width="7" height="3"/><rect x="17" y="22" width="8" height="2"/><rect x="42" y="18" width="6" height="3"/><rect x="25" y="29" width="3" height="5"/>
  </g>
</svg>
