<svg xmlns="http://www.w3.org/2000/svg" viewBox="0 0 64 96" shape-rendering="crispEdges">
  <rect width="64" height="96" fill="none"/>
  <g fill="#050608">
    <rect x="20" y="8" width="24" height="2"/><rect x="17" y="10" width="30" height="4"/><rect x="14" y="14" width="36" height="8"/><rect x="13" y="22" width="39" height="10"/><rect x="15" y="32" width="7" height="14"/><rect x="44" y="32" width="7" height="14"/>
    <rect x="23" y="30" width="5" height="13"/><rect x="31" y="28" width="4" height="16"/><rect x="39" y="30" width="5" height="13"/>
  </g>
  <g fill="#15171c">
    <rect x="21" y="9" width="21" height="2"/><rect x="18" y="11" width="27" height="4"/><rect x="16" y="15" width="32" height="8"/><rect x="15" y="23" width="35" height="8"/><rect x="17" y="31" width="5" height="12"/><rect x="44" y="31" width="5" height="12"/>
  </g>
  <g fill="#343842">
    <rect x="22" y="11" width="7" height="2"/><rect x="34" y="10" width="6" height="3"/><rect x="17" y="22" width="7" height="2"/><rect x="43" y="18" width="5" height="3"/>
  </g>
</svg>
